<svg xmlns="http://www.w3.org/2000/svg" width="420" height="600" viewBox="0 0 420 600" role="img" aria-label="App preview">
  <defs>
    <linearGradient id="bg" x1="0" y1="0" x2="1" y2="1">
      <stop offset="0%" stop-color="#fafafa"/>
      <stop offset="100%" stop-color="#f0f0f0"/>
    </linearGradient>
    <clipPath id="screenClip">
      <rect x="60" y="70" width="300" height="460" rx="28" ry="28"/>
    </clipPath>
  </defs>
  <rect width="420" height="600" fill="none"/>
  <rect x="20" y="10" width="380" height="580" rx="48" ry="48" fill="#111"/>
  <rect x="35" y="25" width="350" height="550" rx="40" ry="40" fill="#fff"/>
  <circle cx="210" cy="34" r="4" fill="#cfcfcf"/>
  <rect x="150" y="24" width="120" height="10" rx="5" ry="5" fill="#cfcfcf"/>
  <rect x="60" y="70" width="300" height="460" rx="28" ry="28" fill="url(#bg)"/>
  <g clip-path="url(#screenClip)">
    <rect x="60" y="70" width="300" height="120" fill="#fff"/>
    <g transform="translate(72,88)">
      <circle cx="22" cy="22" r="22" fill="#e9e9e9"/>
      <rect x="56" y="8" width="140" height="12" rx="6" ry="6" fill="#dcdcdc"/>
      <rect x="56" y="28" width="110" height="10" rx="5" ry="5" fill="#e6e6e6"/>
    </g>
    <rect x="60" y="190" width="300" height="260" fill="#fff"/>
    <rect x="76" y="206" width="268" height="200" rx="12" ry="12" fill="#e6e6e6"/>
    <rect x="76" y="420" width="180" height="12" rx="6" ry="6" fill="#dcdcdc"/>
    <rect x="76" y="440" width="120" height="10" rx="5" ry="5" fill="#e6e6e6"/>
  </g>
  <title>Phone mock with feed preview</title>
</svg>

